<svg width="90" height="91" viewBox="0 0 90 91" fill="none" xmlns="http://www.w3.org/2000/svg">
<path d="M0 0L80 10L90 90H0V0Z" fill="#2160C4"/>
<g filter="url(#filter0_d_2_149)">
<path d="M38.5714 62.3574H30.8571C28.7277 62.3574 27 60.6357 27 58.5137V30.3262C27 28.2041 28.7277 26.4824 30.8571 26.4824H38.5714C40.7009 26.4824 42.4286 28.2041 42.4286 30.3262V58.5137C42.4286 60.6357 40.7009 62.3574 38.5714 62.3574ZM63 58.5137V30.3262C63 28.2041 61.2723 26.4824 59.1429 26.4824H51.4286C49.2991 26.4824 47.5714 28.2041 47.5714 30.3262V58.5137C47.5714 60.6357 49.2991 62.3574 51.4286 62.3574H59.1429C61.2723 62.3574 63 60.6357 63 58.5137Z" fill="white"/>
</g>
<defs>
<filter id="filter0_d_2_149" x="3" y="6.48242" width="84" height="83.875" filterUnits="userSpaceOnUse" color-interpolation-filters="sRGB">
<feFlood flood-opacity="0" result="BackgroundImageFix"/>
<feColorMatrix in="SourceAlpha" type="matrix" values="0 0 0 0 0 0 0 0 0 0 0 0 0 0 0 0 0 0 127 0" result="hardAlpha"/>
<feOffset dy="4"/>
<feGaussianBlur stdDeviation="12"/>
<feComposite in2="hardAlpha" operator="out"/>
<feColorMatrix type="matrix" values="0 0 0 0 0 0 0 0 0 0 0 0 0 0 0 0 0 0 0.45 0"/>
<feBlend mode="normal" in2="BackgroundImageFix" result="effect1_dropShadow_2_149"/>
<feBlend mode="normal" in="SourceGraphic" in2="effect1_dropShadow_2_149" result="shape"/>
</filter>
</defs>
</svg>
