<svg width="90" height="91" viewBox="0 0 90 91" fill="none" xmlns="http://www.w3.org/2000/svg">
<path d="M0 0L80 10L90 90H0V0Z" fill="#2160C4"/>
<g filter="url(#filter0_d_2_59)">
<path d="M63 30V40.5C63 40.9062 62.8516 41.2578 62.5547 41.5547C62.2578 41.8516 61.9062 42 61.5 42H51C50.3438 42 49.8828 41.6875 49.6172 41.0625C49.3516 40.4531 49.4609 39.9141 49.9453 39.4453L53.1797 36.2109C50.8672 34.0703 48.1406 33 45 33C43.375 33 41.8242 33.3164 40.3477 33.9492C38.8711 34.582 37.5938 35.4375 36.5156 36.5156C35.4375 37.5938 34.582 38.8711 33.9492 40.3477C33.3164 41.8242 33 43.375 33 45C33 46.625 33.3164 48.1758 33.9492 49.6523C34.582 51.1289 35.4375 52.4062 36.5156 53.4844C37.5938 54.5625 38.8711 55.418 40.3477 56.0508C41.8242 56.6836 43.375 57 45 57C46.8594 57 48.6172 56.5938 50.2734 55.7812C51.9297 54.9688 53.3281 53.8203 54.4688 52.3359C54.5781 52.1797 54.7578 52.0859 55.0078 52.0547C55.2422 52.0547 55.4375 52.125 55.5938 52.2656L58.8047 55.5C58.9453 55.625 59.0195 55.7852 59.0273 55.9805C59.0352 56.1758 58.9766 56.3516 58.8516 56.5078C57.1484 58.5703 55.0859 60.168 52.6641 61.3008C50.2422 62.4336 47.6875 63 45 63C42.5625 63 40.2344 62.5234 38.0156 61.5703C35.7969 60.6172 33.8828 59.3359 32.2734 57.7266C30.6641 56.1172 29.3828 54.2031 28.4297 51.9844C27.4766 49.7656 27 47.4375 27 45C27 42.5625 27.4766 40.2344 28.4297 38.0156C29.3828 35.7969 30.6641 33.8828 32.2734 32.2734C33.8828 30.6641 35.7969 29.3828 38.0156 28.4297C40.2344 27.4766 42.5625 27 45 27C47.2969 27 49.5195 27.4336 51.668 28.3008C53.8164 29.168 55.7266 30.3906 57.3984 31.9688L60.4453 28.9453C60.8984 28.4609 61.4453 28.3516 62.0859 28.6172C62.6953 28.8828 63 29.3438 63 30Z" fill="white"/>
</g>
<defs>
<filter id="filter0_d_2_59" x="3" y="7" width="84" height="84" filterUnits="userSpaceOnUse" color-interpolation-filters="sRGB">
<feFlood flood-opacity="0" result="BackgroundImageFix"/>
<feColorMatrix in="SourceAlpha" type="matrix" values="0 0 0 0 0 0 0 0 0 0 0 0 0 0 0 0 0 0 127 0" result="hardAlpha"/>
<feOffset dy="4"/>
<feGaussianBlur stdDeviation="12"/>
<feComposite in2="hardAlpha" operator="out"/>
<feColorMatrix type="matrix" values="0 0 0 0 0 0 0 0 0 0 0 0 0 0 0 0 0 0 0.45 0"/>
<feBlend mode="normal" in2="BackgroundImageFix" result="effect1_dropShadow_2_59"/>
<feBlend mode="normal" in="SourceGraphic" in2="effect1_dropShadow_2_59" result="shape"/>
</filter>
</defs>
</svg>
